<?xml version="1.0" standalone="no"?>
<!DOCTYPE svg PUBLIC "-//W3C//DTD SVG 20010904//EN"
 "http://www.w3.org/TR/2001/REC-SVG-20010904/DTD/svg10.dtd">
<svg version="1.0" xmlns="http://www.w3.org/2000/svg"
 width="120.000000pt" height="120.000000pt" viewBox="0 0 120.000000 120.000000"
 preserveAspectRatio="xMidYMid meet">
<metadata>
Created by potrace 1.10, written by Peter Selinger 2001-2011
</metadata>
<g transform="translate(0.000000,120.000000) scale(0.050000,-0.050000)"
fill="#000000" stroke="none">
<path d="M712 2254 c-6 -24 -12 -168 -12 -319 l0 -275 -101 0 c-144 0 -138
-67 6 -76 l95 -6 0 -168 0 -168 -103 -6 c-120 -7 -153 -48 -53 -66 132 -24
466 -3 466 30 0 22 -29 32 -115 36 l-115 6 0 169 0 169 75 0 c41 0 87 8 103
18 48 31 3 62 -89 62 l-89 0 0 308 c0 245 -6 310 -28 318 -17 7 -33 -6 -40
-32z"/>
<path d="M1393 2287 c-7 -8 -13 -75 -13 -150 l0 -137 -57 0 c-192 0 -274 -159
-271 -530 2 -313 15 -360 138 -467 126 -111 178 -58 54 56 -114 104 -150 357
-97 669 46 271 436 273 506 2 63 -240 22 -542 -87 -655 -102 -106 -145 -190
-160 -314 -16 -138 10 -321 45 -321 36 0 45 48 54 274 l7 184 102 108 c122
129 146 200 146 446 0 352 -53 475 -232 538 -77 27 -78 28 -72 124 8 146 -18
218 -63 173z"/>
<path d="M1200 1650 c0 -41 77 -56 239 -47 144 8 174 19 152 56 -22 36 -391
28 -391 -9z"/>
<path d="M1209 1318 c-26 -42 41 -60 204 -54 167 6 201 17 178 55 -18 29 -364
28 -382 -1z"/>
</g>
</svg>
